<?xml version="1.0" encoding="UTF-8" standalone="no"?>
<!-- Created with Inkscape (http://www.inkscape.org/) -->

<svg
   xmlns:dc="http://purl.org/dc/elements/1.1/"
   xmlns:cc="http://creativecommons.org/ns#"
   xmlns:rdf="http://www.w3.org/1999/02/22-rdf-syntax-ns#"
   xmlns:svg="http://www.w3.org/2000/svg"
   xmlns="http://www.w3.org/2000/svg"
   xmlns:sodipodi="http://sodipodi.sourceforge.net/DTD/sodipodi-0.dtd"
   xmlns:inkscape="http://www.inkscape.org/namespaces/inkscape"
   width="744.09448819"
   height="1052.3622047"
   id="svg2"
   version="1.1"
   inkscape:version="0.48.4 r9939"
   sodipodi:docname="log.svg">
  <defs
     id="defs4" />
  <sodipodi:namedview
     id="base"
     pagecolor="#ffffff"
     bordercolor="#666666"
     borderopacity="1.0"
     inkscape:pageopacity="0.0"
     inkscape:pageshadow="2"
     inkscape:zoom="0.72739579"
     inkscape:cx="291.80364"
     inkscape:cy="551.04202"
     inkscape:document-units="px"
     inkscape:current-layer="layer1"
     showgrid="false"
     inkscape:window-width="1378"
     inkscape:window-height="877"
     inkscape:window-x="-8"
     inkscape:window-y="-8"
     inkscape:window-maximized="1" />
  <metadata
     id="metadata7">
    <rdf:RDF>
      <cc:Work
         rdf:about="">
        <dc:format>image/svg+xml</dc:format>
        <dc:type
           rdf:resource="http://purl.org/dc/dcmitype/StillImage" />
        <dc:title></dc:title>
      </cc:Work>
    </rdf:RDF>
  </metadata>
  <g
     inkscape:label="Layer 1"
     inkscape:groupmode="layer"
     id="layer1">
    <g
       id="g3866"
       transform="matrix(0.79736734,0,0,0.79736734,87.956504,-9.5132527)">
      <path
         d="m 15.762231,540.53142 -31.123628,-83.64796 21.4520336,0 14.5437514,42.69039 4.217688,14.25639 c 1.114979,-3.62314 1.817927,-6.01233 2.108845,-7.16757 0.678664,-2.36291 1.405851,-4.72584 2.181562,-7.08882 l 14.689189,-42.69039 21.015722,0 -30.687316,83.64796 z"
         style="font-size:154.99533081px;font-style:normal;font-weight:bold;line-height:125%;letter-spacing:0px;word-spacing:0px;fill:#f88017;fill-opacity:1;stroke:none;font-family:Sans;-inkscape-font-specification:Sans Bold"
         id="path3780"
         inkscape:connector-curvature="0" />
      <path
         d="m 77.427737,445.54137 0,-20.47879 20.433967,0 0,20.47879 z m 0,94.99005 0,-83.64796 20.433967,0 0,83.64796 z"
         style="font-size:154.99533081px;font-style:normal;font-weight:bold;line-height:125%;letter-spacing:0px;word-spacing:0px;fill:#f88017;fill-opacity:1;stroke:none;font-family:Sans;-inkscape-font-specification:Sans Bold"
         id="path3782"
         inkscape:connector-curvature="0" />
      <path
         d="m 188.97832,540.53142 -20.43397,0 0,-42.69039 c -7e-5,-9.03161 -0.43637,-14.87332 -1.30894,-17.52511 -0.87268,-2.65168 -2.2907,-4.71268 -4.25404,-6.18302 -1.96346,-1.47021 -4.32682,-2.20534 -7.09009,-2.20541 -3.53903,7e-5 -6.7144,1.05027 -9.52615,3.15058 -2.81184,2.10046 -4.73888,4.88347 -5.78115,8.34905 -1.04233,3.46569 -1.56348,9.87187 -1.56345,19.21855 l 0,37.88575 -20.43397,0 0,-83.64796 18.9796,0 0,12.28727 c 6.73856,-9.45167 15.22241,-14.17753 25.45156,-14.17761 4.50851,8e-5 8.62923,0.87962 12.36219,2.6386 3.73283,1.75916 6.55674,4.00395 8.47173,6.73437 1.91485,2.73058 3.24803,5.82866 3.99954,9.29423 0.75134,3.4657 1.12706,8.42785 1.12714,14.8865 z"
         style="font-size:154.99533081px;font-style:normal;font-weight:bold;line-height:125%;letter-spacing:0px;word-spacing:0px;fill:#f88017;fill-opacity:1;stroke:none;font-family:Sans;-inkscape-font-specification:Sans Bold"
         id="path3784"
         inkscape:connector-curvature="0" />
      <path
         inkscape:connector-curvature="0"
         id="path3836"
         d="m 244.39385,456.55846 c -0.78206,0 -1.54018,0.0233 -2.3125,0.0625 -23.94211,1.21364 -43,21.00629 -43,45.25 0,25.02577 20.28673,45.31251 45.3125,45.31251 0.78206,0 1.57142,-0.0234 2.34375,-0.0625 0.14476,-0.007 0.29312,-0.0225 0.4375,-0.0312 0.0207,-0.001 0.0418,10e-4 0.0625,0 0.0418,-0.003 0.0833,0.003 0.125,0 0.89449,-0.0581 1.77715,-0.14042 2.65625,-0.25 0.92013,-0.1147 1.84832,-0.26809 2.75,-0.4375 0.90168,-0.16941 1.77465,-0.34014 2.65625,-0.5625 0.81784,-0.20627 1.63829,-0.43713 2.4375,-0.6875 0.0528,-0.0166 0.10351,-0.0458 0.15625,-0.0625 0.009,-0.003 0.0219,0.003 0.0312,0 0.0128,-0.004 0.0185,-0.0272 0.0312,-0.0312 0.84678,-0.27022 1.67588,-0.55682 2.5,-0.875 0.83655,-0.32298 1.65717,-0.66061 2.46875,-1.03125 7.30421,-3.33582 13.56659,-8.57804 18.1875,-15.0625 l -15.03125,-13.84375 c -4.31005,7.58397 -12.46586,12.6875 -21.8125,12.6875 -13.84405,0 -25.0625,-11.21845 -25.0625,-25.0625 0,-13.84403 11.21845,-25.0625 25.0625,-25.0625 9.78753,0 18.27859,5.60184 22.40625,13.78125 l 16.34375,-11.84375 c -6.40417,-10.69901 -16.99637,-18.62005 -29.5625,-21.25 -0.01,-0.002 -0.0214,0.002 -0.0312,0 -0.0415,-0.008 -0.0835,-0.0229 -0.125,-0.0312 -0.79591,-0.16361 -1.59515,-0.28562 -2.40625,-0.40625 -0.55369,-0.0811 -1.09625,-0.15792 -1.65625,-0.21875 -0.8719,-0.0964 -1.73811,-0.17334 -2.625,-0.21875 -0.25753,-0.013 -0.5226,-0.0225 -0.78125,-0.0312 -0.51211,-0.0174 -1.04592,-0.0312 -1.5625,-0.0312 z"
         style="color:#000000;fill:#f88017;fill-opacity:1;fill-rule:evenodd;stroke:none;stroke-width:5;marker:none;visibility:visible;display:inline;overflow:visible;enable-background:accumulate" />
      <path
         inkscape:connector-curvature="0"
         d="m 371.18228,501.87096 c 0,25.02576 -20.28739,45.31316 -45.31315,45.31316 -25.02577,0 -45.31317,-20.28741 -45.31317,-45.31317 0,-25.02577 20.2874,-45.31315 45.31317,-45.31315 25.02576,0 45.31315,20.28738 45.31315,45.31315 z m -20.2463,0 c 0,13.84405 -11.22282,25.06687 -25.06685,25.06687 -13.84405,0 -25.06688,-11.22282 -25.06688,-25.06687 0,-13.84403 11.22283,-25.06686 25.06688,-25.06686 13.84403,0 25.06685,11.22283 25.06685,25.06686 z"
         style="color:#000000;fill:#0461a5;fill-opacity:1;fill-rule:evenodd;stroke:none;stroke-width:5;marker:none;visibility:visible;display:inline;overflow:visible;enable-background:accumulate"
         id="path3819" />
      <path
         id="path3834"
         style="color:#000000;fill:#f88017;fill-opacity:1;fill-rule:evenodd;stroke:none;stroke-width:5;marker:none;visibility:visible;display:inline;overflow:visible;enable-background:accumulate"
         d="m 458.91627,501.87096 c 0,25.02576 -20.28739,45.31316 -45.31315,45.31316 -25.02577,0 -45.31317,-20.28741 -45.31317,-45.31317 0,-25.02577 20.2874,-45.31315 45.31317,-45.31315 25.02576,0 45.31315,20.28738 45.31315,45.31315 z m -20.2463,0 c 0,13.84405 -11.22282,25.06687 -25.06685,25.06687 -13.84405,0 -25.06688,-11.22282 -25.06688,-25.06687 0,-13.84403 11.22283,-25.06686 25.06688,-25.06686 13.84403,0 25.06685,11.22283 25.06685,25.06686 z"
         inkscape:connector-curvature="0" />
      <path
         d="m 492.32439,540.53142 -20.43397,0 0,-83.64796 18.9796,0 0,11.89345 c 3.24807,-5.61846 6.16894,-9.32039 8.76261,-11.1058 2.59359,-1.78525 5.5387,-2.67791 8.83533,-2.67799 4.65395,8e-5 9.13827,1.39158 13.45297,4.17452 l -6.32653,19.29731 c -3.44207,-2.41538 -6.64169,-3.6231 -9.59888,-3.62317 -2.86031,7e-5 -5.28427,0.85335 -7.27187,2.55985 -1.98768,1.70663 -3.55114,4.79157 -4.69037,9.25483 -1.13928,4.46338 -1.70891,13.8101 -1.70889,28.04019 z"
         style="font-size:154.99533081px;font-style:normal;font-weight:bold;line-height:125%;letter-spacing:0px;word-spacing:0px;fill:#0461a5;fill-opacity:1;stroke:none;font-family:Sans;-inkscape-font-specification:Sans Bold"
         id="path3792"
         inkscape:connector-curvature="0" />
      <path
         d="m 529.77457,540.53142 0,-115.46884 20.43397,0 0,41.58769 c 6.30226,-7.77135 13.76804,-11.65707 22.39738,-11.65715 9.4049,8e-5 17.1858,3.68888 23.34272,11.06641 6.15678,7.37768 9.2352,17.97151 9.23528,31.7815 -8e-5,14.28267 -3.1391,25.28345 -9.41708,33.00235 -6.27812,7.71893 -13.90146,11.57839 -22.87005,11.57839 -4.41165,0 -8.76265,-1.19459 -13.05301,-3.58378 -4.29045,-2.38919 -7.98698,-5.92046 -11.08962,-10.59383 l 0,12.28726 z m 20.28854,-43.63556 c -3e-5,8.66413 1.26043,15.07031 3.78137,19.21856 3.53895,5.8811 8.24142,8.82164 14.10744,8.82162 4.50851,2e-5 8.35048,-2.08723 11.52592,-6.26178 3.17533,-4.1745 4.76302,-10.75133 4.76308,-19.73052 -6e-5,-9.55672 -1.59988,-16.44861 -4.79944,-20.6757 -3.19968,-4.22697 -7.29616,-6.34048 -12.28947,-6.34055 -4.89643,7e-5 -8.96868,2.06107 -12.21675,6.18302 -3.24814,4.12207 -4.87218,10.38385 -4.87215,18.78535 z"
         style="font-size:154.99533081px;font-style:normal;font-weight:bold;line-height:125%;letter-spacing:0px;word-spacing:0px;fill:#0461a5;fill-opacity:1;stroke:none;font-family:Sans;-inkscape-font-specification:Sans Bold"
         id="path3794"
         inkscape:connector-curvature="0" />
      <path
         d="m 621.69107,445.54137 0,-20.47879 20.43397,0 0,20.47879 z m 0,94.99005 0,-83.64796 20.43397,0 0,83.64796 z"
         style="font-size:154.99533081px;font-style:normal;font-weight:bold;line-height:125%;letter-spacing:0px;word-spacing:0px;fill:#0461a5;fill-opacity:1;stroke:none;font-family:Sans;-inkscape-font-specification:Sans Bold"
         id="path3796"
         inkscape:connector-curvature="0" />
      <path
         d="m 655.79618,516.66577 20.50669,-3.38688 c 0.8726,4.30582 2.64208,7.57455 5.30846,9.80618 2.66633,2.23168 6.39922,3.34751 11.1987,3.3475 5.28418,10e-6 9.25947,-1.05018 11.92587,-3.15058 1.79368,-1.47025 2.69054,-3.43937 2.6906,-5.90734 -6e-5,-1.68029 -0.48485,-3.0718 -1.45438,-4.17452 -1.01811,-1.05017 -3.29663,-2.0216 -6.83556,-2.91429 -16.48295,-3.93819 -26.9302,-7.53511 -31.34179,-10.79075 -6.10839,-4.51579 -9.16257,-10.79069 -9.16256,-18.82474 -10e-6,-7.24626 2.6421,-13.33738 7.92634,-18.27337 5.28421,-4.93583 13.47718,-7.40378 24.57895,-7.40386 10.5684,8e-5 18.42203,1.86417 23.56087,5.59228 5.13873,3.72826 8.6777,9.24178 10.61694,16.54056 l -19.27047,3.85946 c -0.8242,-3.25554 -2.38765,-5.74975 -4.69036,-7.48263 -2.3028,-1.73276 -5.58727,-2.59917 -9.85339,-2.59924 -5.38122,7e-5 -9.23532,0.81397 -11.56229,2.4417 -1.55136,1.15529 -2.32702,2.65181 -2.327,4.48959 -2e-5,1.57534 0.67868,2.91434 2.03613,4.01698 1.84218,1.47034 8.20507,3.54447 19.08867,6.22241 10.88352,2.67804 18.48262,5.9599 22.79734,9.84557 4.26609,3.93827 6.39917,9.42553 6.39925,16.4618 -8e-5,7.66643 -2.9573,14.25639 -8.87169,19.7699 -5.91453,5.51352 -14.665,8.27027 -26.25147,8.27027 -10.52002,0 -18.8463,-2.31042 -24.97889,-6.93127 -6.13263,-4.62085 -10.14428,-10.89575 -12.03496,-18.82473 z"
         style="font-size:154.99533081px;font-style:normal;font-weight:bold;line-height:125%;letter-spacing:0px;word-spacing:0px;fill:#0461a5;fill-opacity:1;stroke:none;font-family:Sans;-inkscape-font-specification:Sans Bold"
         id="path3798"
         inkscape:connector-curvature="0" />
    </g>
    <g
       id="g3906"
       transform="translate(29.042786,0)">
      <g
         id="g3878"
         transform="matrix(0.2306178,0,0,0.2306178,262.97504,673.0226)">
        <path
           d="m 15.762231,540.53142 -31.123628,-83.64796 21.4520336,0 14.5437514,42.69039 4.217688,14.25639 c 1.114979,-3.62314 1.817927,-6.01233 2.108845,-7.16757 0.678664,-2.36291 1.405851,-4.72584 2.181562,-7.08882 l 14.689189,-42.69039 21.015722,0 -30.687316,83.64796 z"
           style="font-size:154.99533081px;font-style:normal;font-weight:bold;line-height:125%;letter-spacing:0px;word-spacing:0px;fill:#f88017;fill-opacity:1;stroke:none;font-family:Sans;-inkscape-font-specification:Sans Bold"
           id="path3880"
           inkscape:connector-curvature="0" />
        <path
           d="m 77.427737,445.54137 0,-20.47879 20.433967,0 0,20.47879 z m 0,94.99005 0,-83.64796 20.433967,0 0,83.64796 z"
           style="font-size:154.99533081px;font-style:normal;font-weight:bold;line-height:125%;letter-spacing:0px;word-spacing:0px;fill:#f88017;fill-opacity:1;stroke:none;font-family:Sans;-inkscape-font-specification:Sans Bold"
           id="path3882"
           inkscape:connector-curvature="0" />
        <path
           d="m 188.97832,540.53142 -20.43397,0 0,-42.69039 c -7e-5,-9.03161 -0.43637,-14.87332 -1.30894,-17.52511 -0.87268,-2.65168 -2.2907,-4.71268 -4.25404,-6.18302 -1.96346,-1.47021 -4.32682,-2.20534 -7.09009,-2.20541 -3.53903,7e-5 -6.7144,1.05027 -9.52615,3.15058 -2.81184,2.10046 -4.73888,4.88347 -5.78115,8.34905 -1.04233,3.46569 -1.56348,9.87187 -1.56345,19.21855 l 0,37.88575 -20.43397,0 0,-83.64796 18.9796,0 0,12.28727 c 6.73856,-9.45167 15.22241,-14.17753 25.45156,-14.17761 4.50851,8e-5 8.62923,0.87962 12.36219,2.6386 3.73283,1.75916 6.55674,4.00395 8.47173,6.73437 1.91485,2.73058 3.24803,5.82866 3.99954,9.29423 0.75134,3.4657 1.12706,8.42785 1.12714,14.8865 z"
           style="font-size:154.99533081px;font-style:normal;font-weight:bold;line-height:125%;letter-spacing:0px;word-spacing:0px;fill:#f88017;fill-opacity:1;stroke:none;font-family:Sans;-inkscape-font-specification:Sans Bold"
           id="path3884"
           inkscape:connector-curvature="0" />
        <path
           inkscape:connector-curvature="0"
           id="path3886"
           d="m 244.39385,456.55846 c -0.78206,0 -1.54018,0.0233 -2.3125,0.0625 -23.94211,1.21364 -43,21.00629 -43,45.25 0,25.02577 20.28673,45.31251 45.3125,45.31251 0.78206,0 1.57142,-0.0234 2.34375,-0.0625 0.14476,-0.007 0.29312,-0.0225 0.4375,-0.0312 0.0207,-0.001 0.0418,10e-4 0.0625,0 0.0418,-0.003 0.0833,0.003 0.125,0 0.89449,-0.0581 1.77715,-0.14042 2.65625,-0.25 0.92013,-0.1147 1.84832,-0.26809 2.75,-0.4375 0.90168,-0.16941 1.77465,-0.34014 2.65625,-0.5625 0.81784,-0.20627 1.63829,-0.43713 2.4375,-0.6875 0.0528,-0.0166 0.10351,-0.0458 0.15625,-0.0625 0.009,-0.003 0.0219,0.003 0.0312,0 0.0128,-0.004 0.0185,-0.0272 0.0312,-0.0312 0.84678,-0.27022 1.67588,-0.55682 2.5,-0.875 0.83655,-0.32298 1.65717,-0.66061 2.46875,-1.03125 7.30421,-3.33582 13.56659,-8.57804 18.1875,-15.0625 l -15.03125,-13.84375 c -4.31005,7.58397 -12.46586,12.6875 -21.8125,12.6875 -13.84405,0 -25.0625,-11.21845 -25.0625,-25.0625 0,-13.84403 11.21845,-25.0625 25.0625,-25.0625 9.78753,0 18.27859,5.60184 22.40625,13.78125 l 16.34375,-11.84375 c -6.40417,-10.69901 -16.99637,-18.62005 -29.5625,-21.25 -0.01,-0.002 -0.0214,0.002 -0.0312,0 -0.0415,-0.008 -0.0835,-0.0229 -0.125,-0.0312 -0.79591,-0.16361 -1.59515,-0.28562 -2.40625,-0.40625 -0.55369,-0.0811 -1.09625,-0.15792 -1.65625,-0.21875 -0.8719,-0.0964 -1.73811,-0.17334 -2.625,-0.21875 -0.25753,-0.013 -0.5226,-0.0225 -0.78125,-0.0312 -0.51211,-0.0174 -1.04592,-0.0312 -1.5625,-0.0312 z"
           style="color:#000000;fill:#f88017;fill-opacity:1;fill-rule:evenodd;stroke:none;stroke-width:5;marker:none;visibility:visible;display:inline;overflow:visible;enable-background:accumulate" />
        <path
           inkscape:connector-curvature="0"
           d="m 371.18228,501.87096 c 0,25.02576 -20.28739,45.31316 -45.31315,45.31316 -25.02577,0 -45.31317,-20.28741 -45.31317,-45.31317 0,-25.02577 20.2874,-45.31315 45.31317,-45.31315 25.02576,0 45.31315,20.28738 45.31315,45.31315 z m -20.2463,0 c 0,13.84405 -11.22282,25.06687 -25.06685,25.06687 -13.84405,0 -25.06688,-11.22282 -25.06688,-25.06687 0,-13.84403 11.22283,-25.06686 25.06688,-25.06686 13.84403,0 25.06685,11.22283 25.06685,25.06686 z"
           style="color:#000000;fill:#0461a5;fill-opacity:1;fill-rule:evenodd;stroke:none;stroke-width:5;marker:none;visibility:visible;display:inline;overflow:visible;enable-background:accumulate"
           id="path3888" />
        <path
           id="path3890"
           style="color:#000000;fill:#f88017;fill-opacity:1;fill-rule:evenodd;stroke:none;stroke-width:5;marker:none;visibility:visible;display:inline;overflow:visible;enable-background:accumulate"
           d="m 458.91627,501.87096 c 0,25.02576 -20.28739,45.31316 -45.31315,45.31316 -25.02577,0 -45.31317,-20.28741 -45.31317,-45.31317 0,-25.02577 20.2874,-45.31315 45.31317,-45.31315 25.02576,0 45.31315,20.28738 45.31315,45.31315 z m -20.2463,0 c 0,13.84405 -11.22282,25.06687 -25.06685,25.06687 -13.84405,0 -25.06688,-11.22282 -25.06688,-25.06687 0,-13.84403 11.22283,-25.06686 25.06688,-25.06686 13.84403,0 25.06685,11.22283 25.06685,25.06686 z"
           inkscape:connector-curvature="0" />
        <path
           d="m 492.32439,540.53142 -20.43397,0 0,-83.64796 18.9796,0 0,11.89345 c 3.24807,-5.61846 6.16894,-9.32039 8.76261,-11.1058 2.59359,-1.78525 5.5387,-2.67791 8.83533,-2.67799 4.65395,8e-5 9.13827,1.39158 13.45297,4.17452 l -6.32653,19.29731 c -3.44207,-2.41538 -6.64169,-3.6231 -9.59888,-3.62317 -2.86031,7e-5 -5.28427,0.85335 -7.27187,2.55985 -1.98768,1.70663 -3.55114,4.79157 -4.69037,9.25483 -1.13928,4.46338 -1.70891,13.8101 -1.70889,28.04019 z"
           style="font-size:154.99533081px;font-style:normal;font-weight:bold;line-height:125%;letter-spacing:0px;word-spacing:0px;fill:#0461a5;fill-opacity:1;stroke:none;font-family:Sans;-inkscape-font-specification:Sans Bold"
           id="path3892"
           inkscape:connector-curvature="0" />
        <path
           d="m 529.77457,540.53142 0,-115.46884 20.43397,0 0,41.58769 c 6.30226,-7.77135 13.76804,-11.65707 22.39738,-11.65715 9.4049,8e-5 17.1858,3.68888 23.34272,11.06641 6.15678,7.37768 9.2352,17.97151 9.23528,31.7815 -8e-5,14.28267 -3.1391,25.28345 -9.41708,33.00235 -6.27812,7.71893 -13.90146,11.57839 -22.87005,11.57839 -4.41165,0 -8.76265,-1.19459 -13.05301,-3.58378 -4.29045,-2.38919 -7.98698,-5.92046 -11.08962,-10.59383 l 0,12.28726 z m 20.28854,-43.63556 c -3e-5,8.66413 1.26043,15.07031 3.78137,19.21856 3.53895,5.8811 8.24142,8.82164 14.10744,8.82162 4.50851,2e-5 8.35048,-2.08723 11.52592,-6.26178 3.17533,-4.1745 4.76302,-10.75133 4.76308,-19.73052 -6e-5,-9.55672 -1.59988,-16.44861 -4.79944,-20.6757 -3.19968,-4.22697 -7.29616,-6.34048 -12.28947,-6.34055 -4.89643,7e-5 -8.96868,2.06107 -12.21675,6.18302 -3.24814,4.12207 -4.87218,10.38385 -4.87215,18.78535 z"
           style="font-size:154.99533081px;font-style:normal;font-weight:bold;line-height:125%;letter-spacing:0px;word-spacing:0px;fill:#0461a5;fill-opacity:1;stroke:none;font-family:Sans;-inkscape-font-specification:Sans Bold"
           id="path3894"
           inkscape:connector-curvature="0" />
        <path
           d="m 621.69107,445.54137 0,-20.47879 20.43397,0 0,20.47879 z m 0,94.99005 0,-83.64796 20.43397,0 0,83.64796 z"
           style="font-size:154.99533081px;font-style:normal;font-weight:bold;line-height:125%;letter-spacing:0px;word-spacing:0px;fill:#0461a5;fill-opacity:1;stroke:none;font-family:Sans;-inkscape-font-specification:Sans Bold"
           id="path3896"
           inkscape:connector-curvature="0" />
        <path
           d="m 655.79618,516.66577 20.50669,-3.38688 c 0.8726,4.30582 2.64208,7.57455 5.30846,9.80618 2.66633,2.23168 6.39922,3.34751 11.1987,3.3475 5.28418,10e-6 9.25947,-1.05018 11.92587,-3.15058 1.79368,-1.47025 2.69054,-3.43937 2.6906,-5.90734 -6e-5,-1.68029 -0.48485,-3.0718 -1.45438,-4.17452 -1.01811,-1.05017 -3.29663,-2.0216 -6.83556,-2.91429 -16.48295,-3.93819 -26.9302,-7.53511 -31.34179,-10.79075 -6.10839,-4.51579 -9.16257,-10.79069 -9.16256,-18.82474 -10e-6,-7.24626 2.6421,-13.33738 7.92634,-18.27337 5.28421,-4.93583 13.47718,-7.40378 24.57895,-7.40386 10.5684,8e-5 18.42203,1.86417 23.56087,5.59228 5.13873,3.72826 8.6777,9.24178 10.61694,16.54056 l -19.27047,3.85946 c -0.8242,-3.25554 -2.38765,-5.74975 -4.69036,-7.48263 -2.3028,-1.73276 -5.58727,-2.59917 -9.85339,-2.59924 -5.38122,7e-5 -9.23532,0.81397 -11.56229,2.4417 -1.55136,1.15529 -2.32702,2.65181 -2.327,4.48959 -2e-5,1.57534 0.67868,2.91434 2.03613,4.01698 1.84218,1.47034 8.20507,3.54447 19.08867,6.22241 10.88352,2.67804 18.48262,5.9599 22.79734,9.84557 4.26609,3.93827 6.39917,9.42553 6.39925,16.4618 -8e-5,7.66643 -2.9573,14.25639 -8.87169,19.7699 -5.91453,5.51352 -14.665,8.27027 -26.25147,8.27027 -10.52002,0 -18.8463,-2.31042 -24.97889,-6.93127 -6.13263,-4.62085 -10.14428,-10.89575 -12.03496,-18.82473 z"
           style="font-size:154.99533081px;font-style:normal;font-weight:bold;line-height:125%;letter-spacing:0px;word-spacing:0px;fill:#0461a5;fill-opacity:1;stroke:none;font-family:Sans;-inkscape-font-specification:Sans Bold"
           id="path3898"
           inkscape:connector-curvature="0" />
      </g>
      <rect
         y="685.64301"
         x="242.64644"
         height="25.776888"
         width="200.71603"
         id="rect3900"
         style="color:#000000;fill:#f88017;fill-opacity:1;fill-rule:evenodd;stroke:none;stroke-width:5;marker:none;visibility:visible;display:inline;overflow:visible;enable-background:accumulate" />
      <rect
         style="color:#000000;fill:#0461a5;fill-opacity:1;fill-rule:evenodd;stroke:none;stroke-width:5;marker:none;visibility:visible;display:inline;overflow:visible;enable-background:accumulate"
         id="rect3902"
         width="200.71603"
         height="25.776888"
         x="242.64644"
         y="860.23846" />
    </g>
    <g
       id="g3933"
       transform="translate(4.5977097,0)">
      <text
         sodipodi:linespacing="125%"
         id="text3921"
         y="178.00037"
         x="137.47673"
         style="font-size:40px;font-style:normal;font-weight:normal;line-height:125%;letter-spacing:0px;word-spacing:0px;fill:#000000;fill-opacity:1;stroke:none;font-family:Sans"
         xml:space="preserve"><tspan
           style="font-weight:bold;fill:#f88017;fill-opacity:1;-inkscape-font-specification:Sans Bold"
           y="178.00037"
           x="137.47673"
           id="tspan3923"
           sodipodi:role="line">#F88017</tspan></text>
      <text
         xml:space="preserve"
         style="font-size:40px;font-style:normal;font-weight:normal;line-height:125%;letter-spacing:0px;word-spacing:0px;fill:#0461a5;fill-opacity:1;stroke:none;font-family:Sans"
         x="435.80124"
         y="178.01013"
         id="text3925"
         sodipodi:linespacing="125%"><tspan
           id="tspan3929"
           sodipodi:role="line"
           x="435.80124"
           y="178.01013"
           style="font-weight:bold;fill:#0461a5;fill-opacity:1;-inkscape-font-specification:Sans Bold">#0461A5</tspan></text>
    </g>
  </g>
</svg>
